<?xml version="1.0" encoding="utf-8"?>
<!-- Generator: Adobe Illustrator 23.0.1, SVG Export Plug-In . SVG Version: 6.00 Build 0)  -->
<svg version="1.1" id="Ebene_1" xmlns="http://www.w3.org/2000/svg" xmlns:xlink="http://www.w3.org/1999/xlink" x="0px" y="0px"
	 viewBox="0 0 108.323 36.488" enable-background="new 0 0 108.323 36.488" xml:space="preserve">
<g>
	<defs>
		<rect id="SVGID_1_" width="108.323" height="36.488"/>
	</defs>
	<clipPath id="SVGID_2_">
		<use xlink:href="#SVGID_1_"  overflow="visible"/>
	</clipPath>
	<path clip-path="url(#SVGID_2_)" d="M4.8322,34.2934c0-1.045-0.878-1.404-1.739-1.68c-0.551-0.176-1.705-0.3589-1.705-1.095
		c0-0.627,0.594-0.894,1.154-0.894c0.618,0,1.045,0.242,1.103,0.902h1.036c-0.008-1.253-1.019-1.638-2.089-1.638
		c-1.087,0-2.257,0.46-2.257,1.722c0,1.237,1.396,1.546,2.357,1.847c0.452,0.142,1.07,0.351,1.07,0.928
		c0,0.685-0.685,0.97-1.287,0.97c-0.652,0-1.195-0.31-1.254-1.012h-1.036c0.067,1.312,1.103,1.78,2.265,1.78
		C3.5952,36.1234,4.8322,35.6144,4.8322,34.2934"/>
	<path clip-path="url(#SVGID_2_)" d="M9.6846,34.5356h-0.97c-0.025,0.5681-0.334,0.9691-0.919,0.9691
		c-0.853,0-1.12-0.877-1.12-1.588c0-0.752,0.259-1.596,1.153-1.596c0.552,0,0.853,0.359,0.886,0.903h0.953
		c-0.092-1.062-0.844-1.53-1.839-1.53c-1.387,0-2.164,0.936-2.164,2.265c0,1.304,0.727,2.182,2.106,2.182
		C8.8406,36.1407,9.6596,35.5717,9.6846,34.5356"/>
	<path clip-path="url(#SVGID_2_)" d="M14.4723,36.0319v-2.675c0-1.028-0.451-1.604-1.53-1.604c-0.576,0-1.011,0.225-1.354,0.677
		v-2.441h-0.969v6.043h0.969v-2.215c0-0.702,0.259-1.379,1.037-1.379c0.819,0,0.877,0.618,0.877,1.287v2.3069H14.4723z"/>
	<polygon clip-path="url(#SVGID_2_)" points="22.5018,31.8192 21.5658,31.8192 20.5788,35.0792 19.5098,31.8192 18.4058,31.8192 
		17.3278,35.1122 16.3328,31.8192 15.2718,31.8192 16.7758,36.0322 17.7788,36.0322 18.9078,32.7222 20.0028,36.0322 
		21.0058,36.0322 	"/>
	<path clip-path="url(#SVGID_2_)" fill-rule="evenodd" clip-rule="evenodd" d="M24.4798,29.9719h-0.944v0.8441h0.944V29.9719z
		 M26.2438,29.9719h-0.944v0.8441h0.944V29.9719z M25.6498,33.9509c0,0.76-0.125,1.563-1.053,1.563
		c-0.426,0-0.819-0.259-0.819-0.711c0-0.76,0.936-0.861,1.529-0.861C25.4158,33.9419,25.5248,33.9419,25.6498,33.9509
		 M26.6698,36.0319c-0.059-0.501-0.084-0.986-0.084-1.4709v-1.245c0-1.246-0.66-1.605-1.78-1.605c-0.836,0-1.672,0.301-1.68,1.295
		h0.936c0.034-0.501,0.276-0.7191,0.769-0.7191c0.619,0,0.811,0.343,0.811,0.92v0.217c-1.02,0-2.825-0.017-2.825,1.421
		c0,0.869,0.685,1.279,1.487,1.279c0.594,0,1.045-0.176,1.388-0.669c0.017,0.184,0.033,0.376,0.067,0.577H26.6698z"/>
	<path clip-path="url(#SVGID_2_)" fill-rule="evenodd" clip-rule="evenodd" d="M31.0471,33.8927c0,0.752-0.25,1.554-1.136,1.554
		c-0.828,0-1.079-0.836-1.079-1.53c0-0.735,0.301-1.546,1.162-1.546C30.8221,32.3707,31.0471,33.2067,31.0471,33.8927
		 M32.0421,33.8586c0-1.137-0.527-2.14-1.797-2.14c-0.602,0-1.062,0.243-1.396,0.727v-2.457h-0.97v4.856
		c0,0.393,0.009,0.778-0.025,1.187h0.962l0.033-0.593c0.351,0.443,0.719,0.668,1.304,0.668
		C31.4571,36.1067,32.0421,35.0207,32.0421,33.8586"/>
	<path clip-path="url(#SVGID_2_)" fill-rule="evenodd" clip-rule="evenodd" d="M34.053,31.819h-0.97v4.213h0.97V31.819z
		 M34.086,29.989h-1.037v0.861h1.037V29.989z"/>
	<path clip-path="url(#SVGID_2_)" d="M38.7136,34.7781c0-0.7859-0.652-1.028-1.296-1.1949c-0.158-0.0421-0.326-0.076-0.476-0.117
		c-0.151-0.042-0.284-0.084-0.401-0.134c-0.234-0.109-0.393-0.243-0.393-0.477c0-0.384,0.418-0.543,0.761-0.543
		c0.484,0,0.727,0.226,0.743,0.727h0.953c-0.041-0.986-0.76-1.329-1.638-1.329c-0.769,0-1.747,0.31-1.747,1.237
		c0,0.786,0.652,1.02,1.279,1.179c0.159,0.042,0.309,0.075,0.46,0.117c0.15,0.042,0.284,0.084,0.401,0.134
		c0.234,0.108,0.384,0.259,0.384,0.5099c0,0.434-0.434,0.643-0.827,0.643c-0.535,0-0.811-0.276-0.836-0.819h-0.97
		c0.034,1.07,0.836,1.421,1.764,1.421C37.7356,36.1321,38.7136,35.8062,38.7136,34.7781"/>
	<path clip-path="url(#SVGID_2_)" d="M43.4995,34.5356h-0.97c-0.025,0.5681-0.334,0.9691-0.919,0.9691
		c-0.853,0-1.12-0.877-1.12-1.588c0-0.752,0.259-1.596,1.153-1.596c0.552,0,0.853,0.359,0.886,0.903h0.953
		c-0.092-1.062-0.844-1.53-1.839-1.53c-1.387,0-2.164,0.936-2.164,2.265c0,1.304,0.727,2.182,2.106,2.182
		C42.6555,36.1407,43.4745,35.5717,43.4995,34.5356"/>
	<path clip-path="url(#SVGID_2_)" d="M48.2873,36.0319v-2.675c0-1.028-0.451-1.604-1.53-1.604c-0.576,0-1.011,0.225-1.354,0.677
		v-2.441h-0.969v6.043h0.969v-2.215c0-0.702,0.259-1.379,1.037-1.379c0.819,0,0.877,0.618,0.877,1.287v2.3069H48.2873z"/>
	<path clip-path="url(#SVGID_2_)" d="M57.1923,35.7812v-2.951h-2.365v0.744h1.37v1.613c-0.376,0.109-0.76,0.159-1.153,0.159
		c-1.396,0-1.964-1.128-1.964-2.382c0-1.128,0.484-2.315,1.78-2.315c0.669,0,1.145,0.317,1.245,1.011h1.062
		c-0.109-1.287-1.087-1.805-2.257-1.805c-1.881,0-2.925,1.362-2.925,3.151c0,1.881,1.086,3.109,3.017,3.109
		C55.7383,36.1152,56.4733,35.9732,57.1923,35.7812"/>
	<path clip-path="url(#SVGID_2_)" d="M65.1884,36.0319v-2.541c0-1.011-0.368-1.73-1.496-1.73c-0.652,0-1.17,0.251-1.488,0.819
		c-0.242-0.593-0.702-0.819-1.337-0.819c-0.585,0-1.054,0.226-1.363,0.7191l-0.025-0.661h-0.953
		c0.017,0.552,0.025,1.087,0.025,1.622v2.5909h0.97v-2.34c0-0.644,0.267-1.246,0.995-1.246c0.744,0,0.869,0.5601,0.869,1.187v2.399
		h0.969v-2.324c0-0.685,0.184-1.262,0.978-1.262c0.744,0,0.886,0.527,0.886,1.162v2.424H65.1884z"/>
	<path clip-path="url(#SVGID_2_)" fill-rule="evenodd" clip-rule="evenodd" d="M68.0601,29.9719h-0.945v0.8441h0.945V29.9719z
		 M69.8241,29.9719h-0.945v0.8441h0.945V29.9719z M70.4091,36.0319c-0.017-0.5099-0.033-1.02-0.033-1.521v-2.692h-0.97v2.207
		c0,0.694-0.209,1.379-1.028,1.379c-0.828,0-0.886-0.627-0.886-1.295v-2.291h-0.97v2.667c0,1.003,0.485,1.605,1.538,1.605
		c0.611,0,1.003-0.226,1.363-0.694l0.025,0.6349H70.4091z"/>
	<path clip-path="url(#SVGID_2_)" d="M75.5713,36.0319v-2.666c0-1.02-0.451-1.605-1.521-1.605c-0.61,0-1.028,0.226-1.379,0.694
		l-0.017-0.636h-0.961c0.008,0.31,0.025,0.619,0.025,0.928v3.285h0.969v-2.0389c0-0.644,0.142-1.5471,1.037-1.5471
		c0.819,0,0.877,0.627,0.877,1.296v2.29H75.5713z"/>
	<path clip-path="url(#SVGID_2_)" fill-rule="evenodd" clip-rule="evenodd" d="M79.823,33.9169c0,0.694-0.243,1.53-1.07,1.53
		c-0.886,0-1.145-0.803-1.145-1.555c0-0.694,0.234-1.521,1.061-1.521C79.53,32.3709,79.823,33.1819,79.823,33.9169 M80.809,36.0319
		c-0.034-0.41-0.034-0.7939-0.034-1.187v-4.856h-0.969v2.415c-0.343-0.484-0.736-0.685-1.337-0.685c-1.279,0-1.856,1.061-1.856,2.19
		c0,1.153,0.535,2.198,1.864,2.198c0.602,0,0.978-0.209,1.337-0.668l0.034,0.593H80.809z"/>
	<polygon clip-path="url(#SVGID_2_)" points="5.4842,26.1061 5.4842,20.0632 4.4472,20.0632 4.4472,22.6202 1.5642,22.6202 
		1.5642,20.0632 0.5272,20.0632 0.5272,26.1061 1.5642,26.1061 1.5642,23.4152 4.4472,23.4152 4.4472,26.1061 	"/>
	<path clip-path="url(#SVGID_2_)" fill-rule="evenodd" clip-rule="evenodd" d="M10.0121,23.9828c0,0.736-0.301,1.605-1.171,1.605
		c-0.877,0-1.17-0.861-1.17-1.605c0-0.752,0.293-1.563,1.17-1.563C9.7191,22.4198,10.0121,23.2308,10.0121,23.9828 M11.0231,23.9748
		c0-1.337-0.802-2.1899-2.165-2.1899c-1.337,0-2.198,0.861-2.198,2.1899c0,1.337,0.811,2.223,2.181,2.223
		C10.1871,26.1978,11.0231,25.2868,11.0231,23.9748"/>
	<path clip-path="url(#SVGID_2_)" d="M15.7917,24.61h-0.97c-0.025,0.5681-0.334,0.97-0.919,0.97c-0.853,0-1.12-0.878-1.12-1.589
		c0-0.752,0.259-1.596,1.153-1.596c0.552,0,0.853,0.359,0.886,0.903h0.953c-0.092-1.062-0.844-1.53-1.839-1.53
		c-1.387,0-2.164,0.936-2.164,2.265c0,1.304,0.727,2.182,2.106,2.182C14.9477,26.215,15.7667,25.646,15.7917,24.61"/>
	<path clip-path="url(#SVGID_2_)" d="M20.5795,26.1061v-2.675c0-1.028-0.451-1.604-1.53-1.604c-0.576,0-1.011,0.225-1.354,0.676
		v-2.44h-0.969v6.043h0.969v-2.215c0-0.702,0.259-1.379,1.037-1.379c0.819,0,0.877,0.618,0.877,1.287v2.3069H20.5795z"/>
	<path clip-path="url(#SVGID_2_)" d="M25.2404,24.8525c0-0.7859-0.652-1.028-1.296-1.1949c-0.158-0.0421-0.326-0.076-0.476-0.117
		c-0.15-0.042-0.284-0.084-0.401-0.134c-0.234-0.109-0.393-0.242-0.393-0.477c0-0.384,0.418-0.543,0.761-0.543
		c0.484,0,0.727,0.226,0.743,0.727h0.953c-0.041-0.986-0.76-1.329-1.638-1.329c-0.769,0-1.747,0.31-1.747,1.237
		c0,0.786,0.652,1.02,1.279,1.179c0.159,0.042,0.309,0.075,0.46,0.117c0.15,0.042,0.284,0.084,0.401,0.134
		c0.234,0.108,0.384,0.259,0.384,0.5099c0,0.434-0.434,0.643-0.827,0.643c-0.535,0-0.811-0.276-0.836-0.819h-0.969
		c0.033,1.07,0.835,1.421,1.763,1.421C24.2624,26.2065,25.2404,25.8805,25.2404,24.8525"/>
	<path clip-path="url(#SVGID_2_)" d="M30.0264,24.61h-0.97c-0.025,0.5681-0.334,0.97-0.919,0.97c-0.853,0-1.12-0.878-1.12-1.589
		c0-0.752,0.259-1.596,1.153-1.596c0.552,0,0.853,0.359,0.886,0.903h0.953c-0.092-1.062-0.844-1.53-1.839-1.53
		c-1.387,0-2.164,0.936-2.164,2.265c0,1.304,0.727,2.182,2.106,2.182C29.1824,26.215,30.0014,25.646,30.0264,24.61"/>
	<path clip-path="url(#SVGID_2_)" d="M34.814,26.1061v-2.675c0-1.028-0.451-1.604-1.53-1.604c-0.576,0-1.011,0.225-1.354,0.676
		v-2.44h-0.969v6.043h0.969v-2.215c0-0.702,0.26-1.379,1.037-1.379c0.819,0,0.877,0.618,0.877,1.287v2.3069H34.814z"/>
	<path clip-path="url(#SVGID_2_)" d="M40.0349,26.1061c-0.017-0.5099-0.033-1.02-0.033-1.521v-2.692h-0.97v2.207
		c0,0.694-0.209,1.379-1.028,1.379c-0.828,0-0.886-0.627-0.886-1.295v-2.291h-0.97v2.667c0,1.003,0.485,1.605,1.538,1.605
		c0.61,0,1.003-0.226,1.363-0.694l0.025,0.6349H40.0349z"/>
	<rect x="41.343" y="20.063" clip-path="url(#SVGID_2_)" width="0.97" height="6.043"/>
	<path clip-path="url(#SVGID_2_)" fill-rule="evenodd" clip-rule="evenodd" d="M46.422,23.5991h-2.097
		c0.058-0.636,0.409-1.187,1.103-1.187S46.422,22.9721,46.422,23.5991 M47.367,24.1921c0-1.312-0.418-2.399-1.923-2.399
		c-1.404,0-2.097,0.953-2.097,2.274c0,1.287,0.702,2.131,2.047,2.131c0.97,0,1.797-0.435,1.956-1.479h-0.936
		c-0.075,0.551-0.443,0.869-0.986,0.869c-0.769,0-1.129-0.627-1.129-1.329v-0.067H47.367z"/>
	<path clip-path="url(#SVGID_2_)" d="M53.2956,20.7318v-0.6769c-0.242-0.017-0.476-0.0341-0.702-0.0341
		c-1.128,0-1.279,0.669-1.279,1.4691v0.404h-0.836v0.652h0.828v3.56h0.969v-3.56h0.953v-0.652h-0.953v-0.497
		c0-0.497,0.159-0.682,0.652-0.682C53.0446,20.7148,53.1616,20.7238,53.2956,20.7318"/>
	<path clip-path="url(#SVGID_2_)" fill-rule="evenodd" clip-rule="evenodd" d="M55.6325,20.0461h-0.945v0.8441h0.945V20.0461z
		 M57.3965,20.0461h-0.945v0.8441h0.945V20.0461z M57.9815,26.1061c-0.017-0.5099-0.033-1.02-0.033-1.521v-2.692h-0.97v2.207
		c0,0.694-0.209,1.379-1.028,1.379c-0.828,0-0.886-0.627-0.886-1.295v-2.291h-0.97v2.667c0,1.003,0.485,1.605,1.538,1.605
		c0.61,0,1.003-0.226,1.363-0.694l0.025,0.6349H57.9815z"/>
	<path clip-path="url(#SVGID_2_)" d="M61.7479,22.7461v-0.869c-0.084-0.009-0.159-0.017-0.226-0.017
		c-0.585,0-1.003,0.234-1.287,0.727l-0.025-0.694h-0.944c0.008,0.427,0.025,1.246,0.025,1.246c0.016,0.986,0,2.967,0,2.967h0.969
		v-2.148c0-0.777,0.293-1.246,1.12-1.246C61.4969,22.7121,61.6139,22.7291,61.7479,22.7461"/>
	<path clip-path="url(#SVGID_2_)" d="M70.1198,25.8553v-2.951h-2.366v0.744h1.371v1.614c-0.376,0.108-0.76,0.158-1.153,0.158
		c-1.396,0-1.964-1.128-1.964-2.382c0-1.128,0.484-2.315,1.78-2.315c0.669,0,1.145,0.317,1.245,1.011h1.062
		c-0.109-1.287-1.087-1.805-2.257-1.805c-1.881,0-2.925,1.362-2.925,3.151c0,1.881,1.086,3.109,3.017,3.109
		C68.6658,26.1894,69.4008,26.0474,70.1198,25.8553"/>
	<path clip-path="url(#SVGID_2_)" fill-rule="evenodd" clip-rule="evenodd" d="M74.2538,23.5991h-2.098
		c0.059-0.636,0.41-1.187,1.104-1.187S74.2538,22.9721,74.2538,23.5991 M75.1988,24.1921c0-1.312-0.418-2.399-1.923-2.399
		c-1.404,0-2.097,0.953-2.097,2.274c0,1.287,0.702,2.131,2.047,2.131c0.97,0,1.797-0.435,1.956-1.479h-0.936
		c-0.075,0.551-0.443,0.869-0.986,0.869c-0.769,0-1.129-0.627-1.129-1.329v-0.067H75.1988z"/>
	<path clip-path="url(#SVGID_2_)" d="M79.5581,24.8525c0-0.7859-0.652-1.028-1.296-1.1949c-0.158-0.0421-0.326-0.076-0.476-0.117
		c-0.151-0.042-0.284-0.084-0.401-0.134c-0.234-0.109-0.393-0.242-0.393-0.477c0-0.384,0.418-0.543,0.761-0.543
		c0.484,0,0.727,0.226,0.743,0.727h0.953c-0.041-0.986-0.76-1.329-1.638-1.329c-0.769,0-1.747,0.31-1.747,1.237
		c0,0.786,0.652,1.02,1.279,1.179c0.159,0.042,0.309,0.075,0.46,0.117c0.15,0.042,0.284,0.084,0.401,0.134
		c0.234,0.108,0.384,0.259,0.384,0.5099c0,0.434-0.434,0.643-0.827,0.643c-0.535,0-0.811-0.276-0.836-0.819h-0.969
		c0.033,1.07,0.835,1.421,1.763,1.421C78.5801,26.2065,79.5581,25.8805,79.5581,24.8525"/>
	<path clip-path="url(#SVGID_2_)" d="M82.8396,26.0978v-0.685c-0.151,0.0081-0.267,0.041-0.401,0.041
		c-0.535,0-0.577-0.216-0.577-0.7v-2.2h0.961v-0.66h-0.961v-1.154l-0.97,0.393v0.761h-0.81v0.66h0.81v2.559
		c0,0.801,0.427,1.044,1.179,1.044C82.3216,26.1568,82.5726,26.1318,82.8396,26.0978"/>
	<path clip-path="url(#SVGID_2_)" fill-rule="evenodd" clip-rule="evenodd" d="M86.1792,24.0251c0,0.76-0.125,1.563-1.053,1.563
		c-0.426,0-0.819-0.259-0.819-0.711c0-0.76,0.936-0.861,1.529-0.861C85.9452,24.0162,86.0542,24.0162,86.1792,24.0251
		 M87.1992,26.1061c-0.059-0.502-0.084-0.986-0.084-1.4709v-1.245c0-1.246-0.66-1.605-1.78-1.605c-0.836,0-1.672,0.3-1.68,1.295
		h0.936c0.034-0.501,0.276-0.7191,0.769-0.7191c0.619,0,0.811,0.343,0.811,0.92v0.217c-1.02,0-2.825-0.017-2.825,1.421
		c0,0.869,0.685,1.279,1.487,1.279c0.594,0,1.045-0.176,1.388-0.669c0.017,0.184,0.033,0.376,0.067,0.577H87.1992z"/>
	<rect x="88.409" y="20.063" clip-path="url(#SVGID_2_)" width="0.97" height="6.043"/>
	<path clip-path="url(#SVGID_2_)" d="M92.936,26.0978v-0.685c-0.151,0.0081-0.267,0.041-0.401,0.041c-0.535,0-0.577-0.216-0.577-0.7
		v-2.2h0.961v-0.66h-0.961v-1.154l-0.97,0.393v0.761h-0.81v0.66h0.81v2.559c0,0.801,0.427,1.044,1.179,1.044
		C92.418,26.1568,92.669,26.1318,92.936,26.0978"/>
	<path clip-path="url(#SVGID_2_)" d="M97.7135,26.1061c-0.017-0.5099-0.033-1.02-0.033-1.521v-2.692h-0.97v2.207
		c0,0.694-0.209,1.379-1.028,1.379c-0.828,0-0.886-0.627-0.886-1.295v-2.291h-0.97v2.667c0,1.003,0.485,1.605,1.538,1.605
		c0.611,0,1.003-0.226,1.363-0.694l0.025,0.6349H97.7135z"/>
	<path clip-path="url(#SVGID_2_)" d="M102.8757,26.1061v-2.666c0-1.02-0.451-1.605-1.521-1.605c-0.61,0-1.028,0.226-1.379,0.694
		l-0.017-0.636h-0.961c0.008,0.31,0.025,0.619,0.025,0.928v3.285h0.969v-2.04c0-0.643,0.142-1.546,1.037-1.546
		c0.819,0,0.877,0.627,0.877,1.296v2.29H102.8757z"/>
	<path clip-path="url(#SVGID_2_)" fill-rule="evenodd" clip-rule="evenodd" d="M107.1601,23.8915c0,0.727-0.259,1.529-1.111,1.529
		c-0.828,0-1.112-0.76-1.112-1.471c0-0.719,0.276-1.521,1.12-1.521C106.8431,22.4285,107.1601,23.2145,107.1601,23.8915
		 M108.1551,21.8935h-0.961l-0.009,0.66c-0.317-0.509-0.794-0.744-1.404-0.744c-1.245,0-1.864,0.987-1.864,2.124
		c0,1.161,0.602,2.114,1.864,2.114c0.585,0,1.053-0.225,1.379-0.702v0.125c0,0.87-0.058,1.697-1.145,1.697
		c-0.476,0-0.928-0.175-0.928-0.727h-0.927c0,1.087,0.994,1.337,1.864,1.337c1.847,0,2.106-0.986,2.106-2.691v-1.697
		C108.1301,22.9045,108.1381,22.5375,108.1551,21.8935"/>
	<polygon clip-path="url(#SVGID_2_)" fill="#E30613" points="5.4842,6.2548 5.4842,0.2118 4.4472,0.2118 4.4472,2.7688 
		1.5642,2.7688 1.5642,0.2118 0.5272,0.2118 0.5272,6.2548 1.5642,6.2548 1.5642,3.5638 4.4472,3.5638 4.4472,6.2548 	"/>
	<path clip-path="url(#SVGID_2_)" fill="#E30613" d="M53.2757,0.8804V0.2034c-0.242-0.017-0.476-0.0341-0.702-0.0341
		c-1.128,0-1.279,0.669-1.279,1.4691v0.404h-0.836v0.652h0.828v3.56h0.969v-3.56h0.953v-0.652h-0.953v-0.497
		c0-0.497,0.159-0.682,0.652-0.682C53.0247,0.8634,53.1417,0.8724,53.2757,0.8804"/>
	<path clip-path="url(#SVGID_2_)" fill="#E30613" d="M70.0819,6.0041v-2.951h-2.366v0.744h1.371v1.614
		c-0.376,0.108-0.76,0.158-1.153,0.158c-1.396,0-1.964-1.128-1.964-2.382c0-1.128,0.484-2.315,1.78-2.315
		c0.669,0,1.145,0.317,1.245,1.011h1.062c-0.109-1.287-1.087-1.805-2.257-1.805c-1.881,0-2.925,1.362-2.925,3.151
		c0,1.881,1.086,3.109,3.017,3.109C68.6279,6.3381,69.3629,6.1961,70.0819,6.0041"/>
</g>
</svg>
